#!OML:ASF E:\emotionWalksFemale\Project 1\Capture day 1\Session 1\Female1.ASF
:FULLY-SPECIFIED
:DEGREES
2050
root 10.845 15.1722 -10.4969 -1.92124 4.70178 4.01817
lowerback 7.47574 -0.625139 -4.07035
upperback -2.42421 -1.124 1.94942
thorax -6.63345 -0.33798 4.49221
lowerneck -6.26778 -7.43659 -7.19618
upperneck 33.3741 -16.8409 20.2855
head 15.4227 -6.07143 7.29489
rclavicle 9.0944e-015 2.3059e-014
rhumerus -38.9727 -0.0325175 -82.1518
rradius 29.5315
rwrist 19.7339
rhand -8.17677 -49.7475
rfingers 7.12502
rthumb 17.7387 -78.9584
lclavicle 9.0944e-015 2.3059e-014
lhumerus -36.0047 5.21665 87.7296
lradius 29.7608
lwrist -19.5588
lhand -0.0852192 -31.423
lfingers 7.12502
lthumb 25.5087 -3.11059
rfemur -28.2834 20.9743 14.4484
rtibia 25.9948
rfoot -20.6642 -32.646
rtoes 6.14842
lfemur 2.71798 -10.677 -34.7859
ltibia 27.1535
lfoot -23.4693 6.94521
ltoes -7.64504
2051
root 10.8335 15.1717 -10.4195 -1.72392 4.77639 4.09964
lowerback 7.41114 -0.647726 -4.15222
upperback -2.44569 -1.15981 1.95758
thorax -6.61409 -0.352166 4.55058
lowerneck -6.21878 -7.4291 -7.10507
upperneck 33.3976 -16.7815 20.1098
head 15.3705 -6.05191 7.20691
rclavicle 1.44119e-015 -3.4191e-014
rhumerus -39.0229 -0.211806 -81.9509
rradius 29.5243
rwrist 20.3415
rhand -7.65083 -49.9709
rfingers 7.12502
rthumb 18.2448 -79.1352
lclavicle 1.44119e-015 -3.4191e-014
lhumerus -36.4467 5.13783 87.7831
lradius 29.6825
lwrist -20.5745
lhand -1.50133 -32.2895
lfingers 7.12502
lthumb 24.1516 -3.78992
rfemur -28.3788 21.5758 14.0695
rtibia 25.6303
rfoot -21.0749 -33.3813
rtoes 7.69459
lfemur 2.77519 -10.6329 -34.8223
ltibia 27.2612
lfoot -23.488 6.98391
ltoes -6.89932
2052
root 10.8221 15.1693 -10.3405 -1.68253 4.76188 4.05029
lowerback 7.50322 -0.635057 -4.12212
upperback -2.37394 -1.1375 2.03817
thorax -6.59213 -0.342597 4.6172
lowerneck -6.29966 -7.48118 -7.11964
upperneck 33.4693 -16.7962 19.9024
head 15.3977 -6.07117 7.11232
rclavicle 8.99501e-015 -1.35174e-014
rhumerus -38.8906 -0.372862 -81.693
rradius 29.3508
rwrist 20.9779
rhand -6.92368 -50.1462
rfingers 7.12502
rthumb 18.9442 -79.2436
lclavicle 8.99501e-015 -1.35174e-014
lhumerus -36.6747 5.18536 87.8515
lradius 29.5896
lwrist -20.9631
lhand -1.63426 -32.8254
lfingers 7.12502
lthumb 24.0241 -4.30895
rfemur -28.3206 22.258 13.9388
rtibia 25.3459
rfoot -21.2907 -34.252
rtoes 8.79934
lfemur 3.00371 -10.5546 -34.7436
ltibia 27.3781
lfoot -23.4652 6.74858
ltoes -4.51274
2053
root 10.8107 15.1665 -10.2596 -1.66844 4.73588 3.92448
lowerback 7.45127 -0.608261 -3.99622
upperback -2.19639 -1.08047 2.12301
thorax -6.38 -0.327431 4.62325
lowerneck -6.22452 -7.4729 -7.22273
upperneck 33.4175 -16.7486 19.9216
head 15.3553 -6.06829 7.1464
rclavicle -1.89342e-014 9.54166e-015
rhumerus -38.6043 -0.390296 -81.5727
rradius 29.095
rwrist 21.0652
rhand -6.97291 -49.8528
rfingers 7.12502
rthumb 18.8969 -78.9549
lclavicle -1.89342e-014 9.54166e-015
lhumerus -36.6363 4.95729 88.0412
lradius 29.4899
lwrist -20.6409
lhand -0.918635 -32.4027
lfingers 7.12502
lthumb 24.7102 -3.97845
rfemur -28.2071 22.8759 13.9627
rtibia 25.1574
rfoot -21.1417 -35.1004
rtoes 9.50655
lfemur 3.33381 -10.5381 -34.5999
ltibia 27.4698
lfoot -23.4612 6.41239
ltoes -1.94459
2054
root 10.7957 15.1616 -10.1798 -1.53436 4.87384 3.89206
lowerback 7.39963 -0.646585 -3.98333
upperback -2.23095 -1.12656 2.16079
thorax -6.3816 -0.349135 4.66105
lowerneck -5.99673 -7.41759 -7.32018
upperneck 33.6215 -16.6548 19.8326
head 15.3775 -6.05504 7.16807
rclavicle -2.37548e-014 2.14687e-014
rhumerus -38.6841 -0.354774 -81.5223
rradius 28.9289
rwrist 21.1155
rhand -7.10238 -49.5828
rfingers 7.12502
rthumb 18.7724 -78.697
lclavicle -2.37548e-014 2.14687e-014
lhumerus -36.9202 4.62441 88.2351
lradius 29.5162
lwrist -20.1908
lhand -0.382873 -31.5514
lfingers 7.12502
lthumb 25.2236 -3.19849
rfemur -28.1683 23.1421 13.9229
rtibia 25.056
rfoot -21.2857 -35.6412
rtoes 11.1636
lfemur 3.58417 -10.6159 -34.4926
ltibia 27.5328
lfoot -23.5242 5.98474
ltoes 0.625832
2055
root 10.7803 15.1571 -10.0962 -1.43672 5.14515 3.91693
lowerback 7.42782 -0.727447 -4.01354
upperback -2.29643 -1.23803 2.17905
thorax -6.45429 -0.399034 4.71368
lowerneck -5.93867 -7.41855 -7.29425
upperneck 33.9413 -16.6462 19.5901
head 15.484 -6.06172 7.08451
rclavicle 2.97183e-014 -4.77083e-015
rhumerus -38.8081 -0.440586 -81.4515
rradius 28.8348
rwrist 21.1335
rhand -6.76852 -50.1098
rfingers 7.12502
rthumb 19.0934 -79.1926
lclavicle 2.97183e-014 -4.77083e-015
lhumerus -37.4172 4.3831 88.3841
lradius 29.8572
lwrist -19.9514
lhand -0.219164 -31.1228
lfingers 7.12502
lthumb 25.3804 -2.79209
rfemur -28.0024 23.2759 13.8898
rtibia 25.0211
rfoot -21.6131 -36.1065
rtoes 12.9025
lfemur 3.81232 -10.6522 -34.4185
ltibia 27.598
lfoot -23.5009 5.67348
ltoes 1.22291
2056
root 10.7705 15.1554 -10.0173 -1.32189 5.2008 4.03238
lowerback 7.39537 -0.729152 -4.0229
upperback -2.21637 -1.24143 2.1492
thorax -6.3506 -0.405649 4.68492
lowerneck -5.9417 -7.42215 -7.23845
upperneck 33.9911 -16.6444 19.5259
head 15.4941 -6.05669 7.04871
rclavicle 1.16289e-014 7.15625e-015
rhumerus -38.7513 -0.639414 -81.3399
rradius 29.0222
rwrist 20.8618
rhand -5.96868 -50.7174
rfingers 7.12502
rthumb 19.8625 -79.7224
lclavicle 1.16289e-014 7.15625e-015
lhumerus -37.6933 4.03114 88.585
lradius 30.2393
lwrist -19.7231
lhand -0.448293 -31.3429
lfingers 7.12502
lthumb 25.1609 -2.98111
rfemur -27.8688 23.187 13.8544
rtibia 25.0481
rfoot -21.3854 -36.1919
rtoes 12.3713
lfemur 3.88793 -10.469 -34.4877
ltibia 27.6924
lfoot -23.1514 5.95274
ltoes -0.953885
2057
root 10.7631 15.1545 -9.94739 -1.07528 4.91845 4.03747
lowerback 7.33879 -0.620234 -3.89382
upperback -2.18441 -1.08046 2.15451
thorax -6.3036 -0.333258 4.59514
lowerneck -5.91107 -7.39493 -7.20535
upperneck 33.9958 -16.582 19.4761
head 15.4633 -6.03067 7.03103
rclavicle 2.5345e-015 -5.56597e-015
rhumerus -38.771 -0.774858 -81.202
rradius 29.2577
rwrist 20.3402
rhand -5.42473 -50.6721
rfingers 7.12502
rthumb 20.3853 -79.6221
lclavicle 2.5345e-015 -5.56597e-015
lhumerus -37.6898 3.73654 88.7971
lradius 30.2122
lwrist -19.4787
lhand 3.82229 -29.2305
lfingers 7.12502
lthumb 29.246 -1.50929
rfemur -27.9851 22.7885 14.0143
rtibia 25.1035
rfoot -21.039 -35.7438
rtoes 11.9438
lfemur 3.71809 -10.1389 -34.4468
ltibia 27.8483
lfoot -22.7191 6.33548
ltoes -3.38451
2058
root 10.7478 15.1559 -9.86532 -1.02493 5.10213 3.85564
lowerback 7.4857 -0.654058 -3.67335
upperback -2.19693 -1.10377 2.23066
thorax -6.40032 -0.348818 4.55763
lowerneck -6.06353 -7.43388 -7.17103
upperneck 34.2828 -16.6283 19.2459
head 15.6196 -6.04644 6.93175
rclavicle 1.98785e-016 -1.51076e-014
rhumerus -38.7514 -0.715359 -81.1705
rradius 28.9006
rwrist 20.2297
rhand -5.76992 -50.4569
rfingers 7.12502
rthumb 20.0535 -79.442
lclavicle 1.98785e-016 -1.51076e-014
lhumerus -37.811 3.34406 89.072
lradius 30.3806
lwrist -18.9604
lhand 5.65137 -28.1699
lfingers 7.12502
lthumb 30.9911 -0.766752
rfemur -27.6506 22.5738 14.4479
rtibia 25.1562
rfoot -21.4564 -35.865
rtoes 14.0035
lfemur 3.91113 -10.0965 -34.161
ltibia 28.0573
lfoot -22.606 6.13135
ltoes -3.95955
2059
root 10.7391 15.1566 -9.78434 -0.860852 5.0108 3.89687
lowerback 7.5079 -0.601704 -3.55461
upperback -2.21115 -1.02374 2.21006
thorax -6.43838 -0.313267 4.45917
lowerneck -6.27481 -7.48361 -7.18379
upperneck 34.5635 -16.7175 19.1083
head 15.8186 -6.07527 6.87567
rclavicle 1.33683e-014 7.95139e-015
rhumerus -39.0726 -0.87112 -81.1222
rradius 29.3413
rwrist 20.4174
rhand -5.74747 -50.9243
rfingers 7.12502
rthumb 20.0751 -79.9072
lclavicle 1.33683e-014 7.95139e-015
lhumerus -38.0934 2.84768 89.3658
lradius 31.0075
lwrist -18.1544
lhand 5.93801 -27.9087
lfingers 7.12502
lthumb 31.2643 -0.557968
rfemur -27.4796 22.0132 14.7374
rtibia 25.2053
rfoot -21.1225 -35.7791
rtoes 14.5855
lfemur 3.9814 -10.0666 -34.1835
ltibia 28.28
lfoot -22.4754 5.95691
ltoes -2.23934
2060
root 10.73 15.1662 -9.70391 -0.711222 4.93136 4.00161
lowerback 7.38936 -0.567887 -3.56665
upperback -2.10383 -0.975934 2.20996
thorax -6.26133 -0.29596 4.45463
lowerneck -6.23253 -7.43984 -7.18196
upperneck 34.5008 -16.6361 19.1347
head 15.7604 -6.0415 6.89743
rclavicle -5.31749e-015 1.03368e-014
rhumerus -38.9427 -1.17497 -80.9492
rradius 29.5637
rwrist 20.085
rhand -5.37683 -51.228
rfingers 7.12502
rthumb 20.4313 -80.1731
lclavicle -5.31749e-015 1.03368e-014
lhumerus -38.1468 2.68435 89.5448
lradius 31.3162
lwrist -17.8227
lhand 5.87853 -28.3673
lfingers 7.12502
lthumb 31.2076 -1.00555
rfemur -27.3544 21.5066 14.9387
rtibia 25.3311
rfoot -21.1525 -35.808
rtoes 15.667
lfemur 4.02312 -10.0779 -34.2776
ltibia 28.4293
lfoot -22.1128 5.75208
ltoes 0.529374
2061
root 10.7172 15.1831 -9.62384 -0.666856 5.10116 3.95417
lowerback 7.40033 -0.620524 -3.52121
upperback -1.94607 -1.03667 2.29466
thorax -6.09346 -0.333241 4.52285
lowerneck -6.10111 -7.40548 -7.12993
upperneck 34.3276 -16.5311 19.109
head 15.6037 -6.00524 6.87929
rclavicle 1.21507e-014 -1.03368e-014
rhumerus -38.5727 -1.15818 -80.8798
rradius 29.4782
rwrist 19.3554
rhand -5.5922 -51.1147
rfingers 7.12502
rthumb 20.2243 -80.0819
lclavicle 1.21507e-014 -1.03368e-014
lhumerus -38.0619 2.66938 89.7062
lradius 31.3895
lwrist -17.7317
lhand 5.6541 -28.7276
lfingers 7.12502
lthumb 30.9937 -1.32494
rfemur -27.0436 21.0467 15.2991
rtibia 25.4425
rfoot -21.0701 -35.9926
rtoes 17.2218
lfemur 4.18718 -10.0418 -34.1694
ltibia 28.5624
lfoot -21.6781 5.76706
ltoes -0.0710082
